<svg 
 xmlns="http://www.w3.org/2000/svg"
 xmlns:xlink="http://www.w3.org/1999/xlink"
 width="392px" height="312px">
<path fill-rule="evenodd"  opacity="0.031" fill="rgb(255, 255, 255)"
 d="M0.251,311.999 L134.710,311.999 L156.290,184.216 L79.930,184.216 L86.570,144.388 C92.095,114.517 102.340,92.398 117.280,78.007 C132.220,63.642 153.514,56.433 181.190,56.433 L191.150,0.010 C90.435,0.010 29.560,56.433 8.550,169.281 C1.910,211.339 -0.865,258.894 0.251,311.999 L0.251,311.999 ZM201.110,311.999 L335.569,311.999 L357.149,184.216 L279.129,184.216 L285.769,144.388 C291.294,114.517 301.539,92.398 316.479,78.007 C331.419,63.642 352.713,56.433 380.389,56.433 L392.008,0.010 C291.294,0.010 230.419,56.433 209.409,169.281 C202.769,211.339 199.994,258.894 201.110,311.999 L201.110,311.999 Z"/>
</svg>